<svg width="24" height="24" viewBox="0 0 24 24" fill="none" xmlns="http://www.w3.org/2000/svg">
<g clip-path="url(#clip0_58_196)">
<circle cx="12" cy="12" r="12" fill="white"/>
<path d="M17.8333 9.875H17.15L15.7333 6.0725C15.6161 5.75896 15.403 5.48803 15.1228 5.29625C14.8427 5.10447 14.509 5.00107 14.1667 5H12.8333C12.375 5 12 5.36562 12 5.8125C12 6.25938 12.375 6.625 12.8333 6.625H14.1667L15.3833 9.875H11.375L11.075 9.0625H11.15C11.6083 9.0625 11.9833 8.69688 11.9833 8.25C11.9833 7.80312 11.6083 7.4375 11.15 7.4375H8.66667C8.20833 7.4375 7.83333 7.80312 7.83333 8.25C7.83333 8.69688 8.20833 9.0625 8.66667 9.0625H9.29167L10.8083 13.125H10.25C9.88333 11.3131 8.325 9.9725 6.375 9.88313C4.04167 9.76938 2 11.6625 2 13.9375C2 16.2125 3.83333 18 6.16667 18C8.21667 18 9.875 16.6269 10.25 14.75H13.75C14.1167 16.5619 15.675 17.9025 17.625 17.9919C19.9583 18.0975 22 16.2125 22 13.9294C22 11.6625 20.1667 9.875 17.8333 9.875ZM7 14.75H8.51667C8.16667 15.7494 7.18333 16.44 6 16.3669C4.75833 16.2937 3.725 15.27 3.66667 14.0513C3.60833 12.6294 4.725 11.5 6.16667 11.5C7.275 11.5 8.18333 12.1744 8.51667 13.125H7C6.54167 13.125 6.16667 13.4906 6.16667 13.9375C6.16667 14.3844 6.54167 14.75 7 14.75ZM13.75 13.125H12.5833L11.975 11.5H14.5C14.1333 11.9712 13.8667 12.5156 13.75 13.125ZM17.7333 16.375C16.45 16.3263 15.3667 15.2619 15.3333 14.0025C15.3167 13.2225 15.6583 12.54 16.2083 12.085L16.725 13.4663C16.8833 13.8888 17.3583 14.1081 17.7917 13.9538C18.225 13.7994 18.45 13.3362 18.2917 12.9137L17.7667 11.5081L17.775 11.5C18.1091 11.4889 18.4421 11.5439 18.7538 11.6618C19.0655 11.7796 19.3494 11.9578 19.5885 12.1856C19.8276 12.4134 20.0169 12.6861 20.1449 12.9872C20.2729 13.2883 20.337 13.6116 20.3333 13.9375C20.3333 15.335 19.1833 16.4237 17.7333 16.375Z" fill="url(#paint0_linear_58_196)"/>
</g>
<defs>
<linearGradient id="paint0_linear_58_196" x1="12" y1="5" x2="12" y2="18" gradientUnits="userSpaceOnUse">
<stop stop-color="#FFBF00"/>
<stop offset="1" stop-color="#F2A60C"/>
</linearGradient>
<clipPath id="clip0_58_196">
<rect width="24" height="24" fill="white"/>
</clipPath>
</defs>
</svg>
